<svg baseProfile="full" height="200" version="1.1" viewBox="-25 -25 50 50" width="300" x="0px" xml:space="preserve" xmlns="http://www.w3.org/2000/svg" xmlns:xlink="http://www.w3.org/1999/xlink" y="0px"><g><rect fill="#623804" height="10.428571428571429%" stroke="#623804" width="50" x="-25" y="-31.5%"/><rect fill="chocolate" height="10.428571428571429%" stroke="chocolate" width="50" x="-25" y="-21.07142857142857%"/><rect fill="#fedd63" height="10.428571428571429%" stroke="#fedd63" width="50" x="-25" y="-10.642857142857142%"/><rect fill="moccasin" height="10.428571428571429%" stroke="moccasin" width="50" x="-25" y="-0.2142857142857153%"/><rect fill="white" height="10.428571428571429%" stroke="white" width="50" x="-25" y="10.214285714285715%"/><rect fill="dimgray" height="10.428571428571429%" stroke="dimgray" width="50" x="-25" y="20.642857142857146%"/><rect fill="black" height="10.428571428571429%" stroke="black" width="50" x="-25" y="31.07142857142857%"/><path d="M98.9 24.4c-5.7 0-11.5 1.3-16.3 4.4C61.2 42.6 91.1 48.3 96 51.1c4.7 2.7 22.4 22.9 29.7-8.4 2.2-9.7-12.2-18.3-26.8-18.3m45.4 11.2c-17.7 1.9-.8 43 23.6 44.4 16.5.9 28.9-39.3-23.6-44.4m-94.4 8.9C34.2 44 43.7 73.3 69 83.6c5.1 2.1 14.2-4.7 14.4-16 .1-4.2-7.1-22.2-33.5-23.1m61 17.7c-7.1-.1-14.6 3-22.8 11.5-28.9 30.3 13.8 35.5 10.6 51.9-9.7 48.5-.9 52.5 8.3 55.6 11.7 3.9 33.8-33.4 43.1-40.4 12.4-9.4 77.9-42.2 62.4-58.8-22.3-23.8-27 7.3-57.7-1-14.6-3.9-28.3-18.8-43.9-18.8M54.4 96.5c-2.8-.1-5.5.4-8.1 1.6-11.5 5.2 10.8 36.5 20.9 37.4 12.4 1.1 17.4-8.9 17.6-14.7.3-7.6-15.4-24-30.4-24.3m4 46.7c-4.5.1-8 1.2-9.6 3.3-4.1 6.2 21.6 30.4 28.7 32 6.5 1.5 12.6-13 11.4-18.7-2.2-10.4-19.2-16.7-30.5-16.6" transform="scale(.08 .08) translate(-120,-80) "/></g></svg>