<svg baseProfile="full" height="200" version="1.1" viewBox="-25 -25 50 50" width="300" x="0px" xml:space="preserve" xmlns="http://www.w3.org/2000/svg" xmlns:xlink="http://www.w3.org/1999/xlink" y="0px"><g><rect fill="purple" height="73.0%" stroke="purple" width="50" x="-25" y="-31.5%"/><g transform="scale(.04, .04) translate(-500 -150)"><path d="M500 550L211.325 50h577.35z" fill="black"/><path d="M479.667 132.374a162.687 162.687 0 0 1-108.732-62.373 162.687 162.687 0 0 0 0 198.075 162.687 162.687 0 0 1 108.732-62.373zm40.672 73.329a162.687 162.687 0 0 1 108.732 62.373 162.687 162.687 0 0 0 0-198.075 162.687 162.687 0 0 1-108.732 62.373zm-4.067-91.571a16.269 8.134 0 0 0-32.538 0v347.743a16.269 8.134 0 0 0 32.538 0z" fill="white"/></g></g></svg>